<?xml version="1.0" encoding="UTF-8" standalone="no"?>
<!-- Created with Inkscape (http://www.inkscape.org/) -->

<svg
   xmlns:dc="http://purl.org/dc/elements/1.1/"
   xmlns:cc="http://creativecommons.org/ns#"
   xmlns:rdf="http://www.w3.org/1999/02/22-rdf-syntax-ns#"
   xmlns:svg="http://www.w3.org/2000/svg"
   xmlns="http://www.w3.org/2000/svg"
   xmlns:xlink="http://www.w3.org/1999/xlink"
   xmlns:sodipodi="http://sodipodi.sourceforge.net/DTD/sodipodi-0.dtd"
   xmlns:inkscape="http://www.inkscape.org/namespaces/inkscape"
   width="210mm"
   height="297mm"
   id="svg2"
   version="1.1"
   inkscape:version="0.48.0 r9654"
   sodipodi:docname="iglu.svg">
  <defs
     id="defs4">
    <linearGradient
       id="linearGradient3830">
      <stop
         style="stop-color:#dff9ff;stop-opacity:1;"
         offset="0"
         id="stop3832" />
      <stop
         style="stop-color:#aaeeff;stop-opacity:1;"
         offset="1"
         id="stop3834" />
    </linearGradient>
    <linearGradient
       id="linearGradient3808">
      <stop
         style="stop-color:#d3d3d3;stop-opacity:1;"
         offset="0"
         id="stop3810" />
      <stop
         style="stop-color:#999999;stop-opacity:1;"
         offset="1"
         id="stop3812" />
    </linearGradient>
    <linearGradient
       id="linearGradient3790">
      <stop
         style="stop-color:#ffffff;stop-opacity:1;"
         offset="0"
         id="stop3792" />
      <stop
         style="stop-color:#deaa87;stop-opacity:1;"
         offset="1"
         id="stop3794" />
    </linearGradient>
    <linearGradient
       id="linearGradient3002">
      <stop
         style="stop-color:#ffffff;stop-opacity:1;"
         offset="0"
         id="stop3004" />
      <stop
         style="stop-color:#e6e6e6;stop-opacity:1;"
         offset="1"
         id="stop3006" />
    </linearGradient>
    <radialGradient
       inkscape:collect="always"
       xlink:href="#linearGradient3002"
       id="radialGradient3008"
       cx="455.56619"
       cy="414.81744"
       fx="455.56619"
       fy="414.81744"
       r="185.99534"
       gradientTransform="matrix(-1.2708812,-0.00584941,0.00545365,-1.1848964,1034.8932,915.48939)"
       gradientUnits="userSpaceOnUse" />
    <linearGradient
       inkscape:collect="always"
       xlink:href="#linearGradient3002"
       id="linearGradient3780"
       x1="309.02219"
       y1="566.96765"
       x2="308.28113"
       y2="694.42999"
       gradientUnits="userSpaceOnUse" />
    <linearGradient
       inkscape:collect="always"
       xlink:href="#linearGradient3002"
       id="linearGradient3784"
       x1="254.42479"
       y1="571.65253"
       x2="253.94266"
       y2="690.96326"
       gradientUnits="userSpaceOnUse" />
    <linearGradient
       inkscape:collect="always"
       xlink:href="#linearGradient3790"
       id="linearGradient3796"
       x1="178.59555"
       y1="450.99164"
       x2="97.078911"
       y2="568.82025"
       gradientUnits="userSpaceOnUse" />
    <linearGradient
       inkscape:collect="always"
       xlink:href="#linearGradient3790"
       id="linearGradient3800"
       x1="248.49629"
       y1="391.3363"
       x2="248.75523"
       y2="571.414"
       gradientUnits="userSpaceOnUse" />
    <radialGradient
       inkscape:collect="always"
       xlink:href="#linearGradient3002"
       id="radialGradient3804"
       cx="360.15533"
       cy="799.25378"
       fx="360.15533"
       fy="799.25378"
       r="302.11159"
       gradientTransform="matrix(1.0661212,-0.01595594,0.00332995,0.22249607,-26.475363,557.94051)"
       gradientUnits="userSpaceOnUse" />
    <linearGradient
       inkscape:collect="always"
       xlink:href="#linearGradient3808"
       id="linearGradient3814"
       x1="217.759"
       y1="633.98835"
       x2="296.18311"
       y2="633.98835"
       gradientUnits="userSpaceOnUse" />
    <radialGradient
       inkscape:collect="always"
       xlink:href="#linearGradient3002"
       id="radialGradient3818"
       cx="168.59125"
       cy="600.31433"
       fx="168.59125"
       fy="600.31433"
       r="82.387174"
       gradientTransform="matrix(1,0,0,0.47217784,0,339.22576)"
       gradientUnits="userSpaceOnUse" />
    <radialGradient
       inkscape:collect="always"
       xlink:href="#linearGradient3002"
       id="radialGradient3822"
       cx="165.25647"
       cy="546.63031"
       fx="165.25647"
       fy="546.63031"
       r="87.945131"
       gradientTransform="matrix(1,0,0,0.39452137,0,357.13129)"
       gradientUnits="userSpaceOnUse" />
    <linearGradient
       inkscape:collect="always"
       xlink:href="#linearGradient3790"
       id="linearGradient3826"
       x1="605.68744"
       y1="446.54529"
       x2="662.26697"
       y2="596.2395"
       gradientUnits="userSpaceOnUse" />
    <linearGradient
       inkscape:collect="always"
       xlink:href="#linearGradient3830"
       id="linearGradient3836"
       x1="349.17044"
       y1="621.8797"
       x2="342.42038"
       y2="156.03752"
       gradientUnits="userSpaceOnUse" />
    <radialGradient
       inkscape:collect="always"
       xlink:href="#linearGradient3002"
       id="radialGradient3840"
       cx="152.7041"
       cy="315.14722"
       fx="152.7041"
       fy="315.14722"
       r="53.771408"
       gradientTransform="matrix(1.6627741,0.01377809,-0.01140476,1.3763549,-97.614143,-120.91363)"
       gradientUnits="userSpaceOnUse" />
    <radialGradient
       inkscape:collect="always"
       xlink:href="#linearGradient3002"
       id="radialGradient3844"
       cx="353.66006"
       cy="213.45201"
       fx="353.66006"
       fy="213.45201"
       r="58.535572"
       gradientTransform="matrix(1.3006556,-0.02866378,0.02709083,1.229281,-112.11248,-31.583624)"
       gradientUnits="userSpaceOnUse" />
    <radialGradient
       inkscape:collect="always"
       xlink:href="#linearGradient3002"
       id="radialGradient3848"
       cx="536.66547"
       cy="324.08353"
       fx="536.66547"
       fy="324.08353"
       r="19.734256"
       gradientTransform="matrix(0.99978954,0.02051529,-0.02229644,1.0865919,7.3388545,-38.100675)"
       gradientUnits="userSpaceOnUse" />
  </defs>
  <sodipodi:namedview
     id="base"
     pagecolor="#ffffff"
     bordercolor="#666666"
     borderopacity="1.0"
     inkscape:pageopacity="0.0"
     inkscape:pageshadow="2"
     inkscape:zoom="1.3115182"
     inkscape:cx="374.34285"
     inkscape:cy="619.91098"
     inkscape:document-units="px"
     inkscape:current-layer="layer1"
     showgrid="false"
     inkscape:window-width="1920"
     inkscape:window-height="1030"
     inkscape:window-x="-8"
     inkscape:window-y="-8"
     inkscape:window-maximized="1" />
  <metadata
     id="metadata7">
    <rdf:RDF>
      <cc:Work
         rdf:about="">
        <dc:format>image/svg+xml</dc:format>
        <dc:type
           rdf:resource="http://purl.org/dc/dcmitype/StillImage" />
        <dc:title></dc:title>
      </cc:Work>
    </rdf:RDF>
  </metadata>
  <g
     inkscape:label="Camada 1"
     inkscape:groupmode="layer"
     id="layer1">
    <g
       id="g3850">
      <path
         inkscape:connector-curvature="0"
         id="path3828"
         d="M 54.499644,628.04352 C 33.737875,624.15069 23.35699,621.55547 18.166548,604.68653 12.976106,587.81759 38.928317,560.56777 41.523539,533.31795 44.11876,506.06813 33.737875,465.8422 25.952212,446.37804 c -7.785664,-19.46416 -5.190443,-63.58292 3.892831,-86.93991 9.083274,-23.35699 22.05938,-67.47575 22.05938,-88.23752 0,-20.76177 15.571327,-49.3092 37.630707,-59.69009 22.05938,-10.38088 53.20203,-15.57132 83.04708,-9.08327 29.84504,6.48805 68.77336,0 84.34469,-12.9761 15.57132,-12.97611 57.09486,-40.22593 85.64229,-35.03549 28.54744,5.19044 86.93991,50.60681 111.59451,55.79725 24.65461,5.19045 67.47575,2.59523 92.13036,0 24.6546,-2.59522 58.39247,37.63071 75.26141,38.92832 16.86894,1.29761 55.79725,25.95221 63.58292,48.01159 7.78566,22.05938 -5.19044,45.41637 -7.78567,62.28531 -2.59522,16.86894 -33.73787,45.41637 -28.54743,59.69009 5.19044,14.27371 28.54743,66.17814 37.63071,73.9638 9.08327,7.78566 38.92832,29.84504 41.52354,50.60681 2.59522,20.76177 7.78566,67.47575 -5.19045,73.96381 -12.9761,6.48805 -36.33309,-1.29761 -36.33309,-1.29761 z"
         style="fill:url(#linearGradient3836);stroke:none;stroke-width:1px;stroke-linecap:butt;stroke-linejoin:miter;stroke-opacity:1" />
      <path
         inkscape:connector-curvature="0"
         id="path3846"
         d="m 537.68439,340.43638 c 0,0 12.7601,9.24007 18.92015,1.76001 6.16005,-7.48006 3.52003,-18.04015 0,-18.92015 -3.52003,-0.88001 -11.44009,-2.64003 -11.44009,-2.64003 0,0 -6.60006,-8.36006 -12.76011,-6.60005 -6.16005,1.76002 -8.80007,6.16005 -8.80007,9.24008 0,3.08002 -0.88001,8.36006 -0.88001,8.36006 0,0 -3.08002,7.48007 2.20002,9.24008 5.28004,1.76001 12.76011,-0.44 12.76011,-0.44 z"
         style="fill:url(#radialGradient3848);stroke:none;stroke-width:1px;stroke-linecap:butt;stroke-linejoin:miter;stroke-opacity:1" />
      <path
         inkscape:connector-curvature="0"
         id="path3842"
         d="m 386.32315,255.51568 c 0,0 8.80007,22.88019 23.76019,17.60015 14.96013,-5.28005 21.12018,-20.24017 17.16014,-25.96021 -3.96003,-5.72005 -6.16005,-11.00009 -12.3201,-13.20011 -6.16005,-2.20002 -18.48015,0 -18.48015,0 0,0 -3.08002,-18.92016 -8.80007,-21.56018 -5.72005,-2.64002 -20.24016,-5.28004 -20.24016,-5.28004 0,0 -21.12018,-14.52012 -33.88028,-9.24008 -12.7601,5.28005 -22.00018,17.60015 -21.12017,25.08021 0.88,7.48006 -0.44001,11.44009 6.16005,14.96012 6.60005,3.52003 13.20011,8.80007 13.20011,8.80007 0,0 3.96003,16.72014 8.36006,21.12017 4.40004,4.40004 11.4401,9.24008 18.04015,7.04006 6.60005,-2.20002 16.72014,-12.7601 16.72014,-12.7601 z"
         style="fill:url(#radialGradient3844);stroke:none;stroke-width:1px;stroke-linecap:butt;stroke-linejoin:miter;stroke-opacity:1" />
      <path
         inkscape:connector-curvature="0"
         id="path3838"
         d="m 147.4012,372.11663 c 0,0 12.3201,29.92025 31.24026,19.36016 18.92015,-10.56008 19.36015,-21.12017 14.96012,-27.72022 -4.40004,-6.60006 -6.16005,-9.24008 -6.16005,-9.24008 l 7.92006,-15.84013 c 0,0 14.52012,3.08003 18.48015,-5.72004 3.96004,-8.80008 -0.88,-23.32019 -11.44009,-24.64021 -10.56009,-1.32001 -12.3201,3.52003 -12.3201,3.52003 l -10.56009,-9.68008 -7.04005,-2.20001 c 0,0 -10.12009,-13.64011 -21.56018,-13.64011 -11.44009,0 -20.24016,10.12008 -20.24016,10.12008 l -4.84004,11.88009 c 0,0 -17.60015,13.20011 -17.16014,23.32019 0.44,10.12009 0,22.88019 7.48006,29.48025 7.48006,6.60005 7.92006,8.80007 14.52012,9.68007 6.60005,0.88001 16.72013,1.32001 16.72013,1.32001 z"
         style="fill:url(#radialGradient3840);stroke:none;stroke-width:1px;stroke-linecap:butt;stroke-linejoin:miter;stroke-opacity:1" />
      <path
         inkscape:connector-curvature="0"
         id="path3824"
         d="m 680.29346,606.24381 c 0,0 -15.56226,-65.21332 -20.00863,-80.03453 -4.44636,-14.8212 -11.85696,-37.79408 -11.85696,-37.79408 l -8.15167,-2.22318 -17.04439,-25.93711 c 0,0 -8.89272,-14.82121 -15.56227,-14.82121 -6.66954,0 -17.78545,5.92848 -17.78545,5.92848 0,0 24.455,40.01727 29.64242,50.39211 5.18742,10.37485 15.56227,52.61529 17.78545,62.99014 2.22318,10.37484 5.18742,35.5709 5.18742,35.5709 l 16.30333,-3.70531 z"
         style="fill:url(#linearGradient3826);stroke:none;stroke-width:1px;stroke-linecap:butt;stroke-linejoin:miter;stroke-opacity:1" />
      <path
         inkscape:connector-curvature="0"
         id="path3820"
         d="m 219.35388,607.72593 21.49076,-32.60666 -30.38348,-14.08015 c 0,0 -34.08878,-6.66954 -47.42787,-5.18742 -13.33909,1.48212 -48.90999,7.41061 -64.472254,13.33909 -15.562269,5.92848 -29.642417,11.85697 -29.642417,11.85697 l 4.446363,7.4106 7.410604,9.63379 -4.446363,12.59802 -10.374846,12.59803 28.901357,0.74106 c 0,0 47.427866,-9.63379 56.320596,-11.85697 8.89272,-2.22318 37.05302,-9.63378 43.72256,-8.89272 6.66954,0.74106 24.45499,4.44636 24.45499,4.44636 z"
         style="fill:url(#radialGradient3822);stroke:none;stroke-width:1px;stroke-linecap:butt;stroke-linejoin:miter;stroke-opacity:1" />
      <path
         inkscape:connector-curvature="0"
         id="path3816"
         d="m 207.49692,673.68031 -85.22195,7.4106 c 0,0 3.7053,-14.82121 -8.15167,-25.93711 -11.85696,-11.11591 -59.284829,-27.41924 -59.284829,-27.41924 l 39.276202,-7.4106 c 0,0 49.651047,-7.41061 69.659677,-12.59803 20.00863,-5.18742 54.83847,-2.96424 54.83847,-2.96424 l -9.63378,28.1603 z"
         style="fill:url(#radialGradient3818);stroke:none;stroke-width:1px;stroke-linecap:butt;stroke-linejoin:miter;stroke-opacity:1" />
      <path
         sodipodi:nodetypes="csscscscsccccsccccccccc"
         inkscape:connector-curvature="0"
         id="path3802"
         d="m 685.48089,695.91212 c 0,0 -32.60666,8.89273 -37.79408,16.30333 -5.18743,7.4106 -28.90136,22.23181 -39.27621,24.45499 -10.37484,2.22319 -81.51664,13.33909 -81.51664,13.33909 0,0 -65.95438,-0.74106 -80.77559,1.48212 -14.82121,2.22318 -51.13317,11.85697 -51.13317,11.85697 0,0 -64.47225,8.15166 -80.77558,7.4106 -16.30333,-0.74106 -94.11468,-20.00863 -94.11468,-20.00863 0,0 -18.52651,-9.63378 -29.64241,-10.37484 -11.11591,-0.74106 -53.35635,-10.37485 -53.35635,-10.37485 l -41.499386,-19.26757 -9.633785,-9.63379 36.311961,-20.74969 c 0,0 14.08015,-5.92848 37.05302,-5.92848 22.97287,0 480.20716,-79.29346 480.20716,-79.29346 l 28.24598,3.37894 20.46099,15.85478 -34.04513,9.0635 -10.34214,10.52817 0.61524,21.63091 28.41277,24.02458 16.30333,11.11591 z"
         style="fill:url(#radialGradient3804);stroke:none" />
      <path
         sodipodi:nodetypes="cssssccc"
         inkscape:connector-curvature="0"
         id="path3806"
         d="m 295.68311,679.60879 c 0,0 -4.44637,-50.39211 -13.33909,-62.99013 -8.89273,-12.59803 -25.93711,-29.64242 -33.34772,-28.1603 -7.4106,1.48212 -19.26757,14.82121 -21.49075,24.45499 -2.22318,9.63379 -11.11591,35.5709 -8.89273,42.98151 2.22318,7.4106 3.70531,20.74969 3.70531,20.74969 l 45.20468,2.22318 z"
         style="fill:url(#linearGradient3814);stroke:none;stroke-width:1px;stroke-linecap:butt;stroke-linejoin:miter;stroke-opacity:1" />
      <path
         inkscape:connector-curvature="0"
         id="path3798"
         d="m 328.28977,453.58536 c 0,0 -31.8656,-14.08014 -43.72257,-27.41923 -11.85697,-13.33909 -34.08878,-37.05302 -34.08878,-37.05302 0,0 -7.4106,-0.74106 -10.37484,-0.74106 -2.96425,0 -20.7497,27.41923 -20.7497,27.41923 l -28.16029,28.1603 -12.59803,18.52651 -40.01726,50.39211 c 0,0 -17.04439,16.30333 -20.74969,27.41923 -3.70531,11.11591 -8.15167,27.41924 -8.15167,27.41924 0,0 49.65105,-15.56227 72.62392,-11.85697 22.97288,3.7053 58.54378,17.78545 58.54378,17.78545 l 31.12453,-6.66954 c 0,0 13.33909,-55.57953 22.23182,-70.40074 8.89272,-14.82121 34.08878,-42.98151 34.08878,-42.98151 z"
         style="fill:url(#linearGradient3800);stroke:none;stroke-width:1px;stroke-linecap:butt;stroke-linejoin:miter;stroke-opacity:1" />
      <path
         inkscape:connector-curvature="0"
         id="path3788"
         d="m 83.739827,572.89609 54.097413,-77.07028 23.71393,-37.79408 11.85697,-11.85697 8.89272,12.59803 -41.49938,53.35635 c 0,0 -16.30333,22.97287 -20.74969,32.60666 -4.44636,9.63378 -10.37485,22.23181 -10.37485,22.23181 z"
         style="fill:url(#linearGradient3796);stroke:none;stroke-width:1px;stroke-linecap:butt;stroke-linejoin:miter;stroke-opacity:1" />
      <path
         inkscape:connector-curvature="0"
         id="path3782"
         d="m 316.4328,694.43 c 0,0 -1.48212,-42.9815 -11.85697,-67.4365 -10.37484,-24.45499 -30.38347,-51.87423 -46.6868,-54.83847 -16.30333,-2.96424 -31.12454,20.00863 -31.12454,20.00863 l -18.52651,42.98151 -2.22318,39.2762 14.08014,-0.74106 c 0,0 -2.96424,-45.20469 5.18743,-57.06165 8.15166,-11.85697 16.30333,-27.41924 26.67817,-26.67818 10.37485,0.74106 28.90136,17.04439 30.38348,32.60666 1.48212,15.56227 9.63379,28.90136 11.85697,41.49938 2.22318,12.59803 1.48212,28.90136 1.48212,28.90136 z"
         style="fill:url(#linearGradient3784);stroke:none;stroke-width:1px;stroke-linecap:butt;stroke-linejoin:miter;stroke-opacity:1" />
      <path
         inkscape:connector-curvature="0"
         id="path3778"
         d="m 393.50308,684.79621 c 0,0 -2.96424,-51.13316 -17.78545,-71.1418 -14.82121,-20.00863 -39.2762,-42.9815 -39.2762,-42.9815 l -59.28483,-3.7053 -27.41924,5.92848 c 0,0 40.01726,7.41061 50.39211,41.49938 10.37485,34.08878 15.56227,81.51665 15.56227,81.51665 0,0 65.95438,-5.18742 77.81134,-11.11591 z"
         style="fill:url(#linearGradient3780);stroke:none;stroke-width:1px;stroke-linecap:butt;stroke-linejoin:miter;stroke-opacity:1" />
      <path
         inkscape:connector-curvature="0"
         id="path3000"
         d="m 640.2762,653.67168 c 0,0 5.18743,-52.61529 -1.48212,-80.77559 -6.66954,-28.16029 -17.78545,-82.99877 -39.2762,-107.45376 -21.49075,-24.45499 -55.57953,-57.06165 -82.25771,-63.7312 -26.67817,-6.66954 -74.10604,-13.33908 -97.07891,-8.15166 -22.97288,5.18742 -74.8471,33.34772 -92.63255,57.06165 -17.78545,23.71394 -42.24045,59.28484 -49.65105,81.51665 -7.41061,22.23181 -6.66955,35.5709 -6.66955,35.5709 l 63.7312,1.48212 c 0,0 36.31196,34.82984 43.72256,50.39211 7.41061,15.56227 15.56227,68.17756 15.56227,68.17756 0,0 65.21332,20.74969 123.75709,17.78545 58.54378,-2.96425 100.78422,-11.85697 111.90013,-22.97288 11.1159,-11.1159 10.37484,-28.90135 10.37484,-28.90135 z"
         style="fill:url(#radialGradient3008);stroke:none;stroke-width:1px;stroke-linecap:butt;stroke-linejoin:miter;stroke-opacity:1" />
      <path
         inkscape:connector-curvature="0"
         id="path2998"
         d="m 294.6875,771.56555 c -3.85,-0.41542 -18.7,-3.11184 -33,-5.99205 -20.73409,-4.17612 -27.72155,-6.00537 -34.5,-9.03173 -17.99403,-8.03377 -36.79973,-13.4731 -52.48328,-15.18019 -27.84612,-3.03092 -48.98744,-10.34757 -72.51672,-25.09679 -5.775001,-3.62004 -12.635301,-7.6125 -15.245101,-8.87215 -7.87468,-3.80078 -7.40431,-7.03991 1.68228,-11.58481 2.78455,-1.39276 5.97424,-3.36614 7.0882,-4.38529 1.11396,-1.01914 6.367101,-3.88188 11.673651,-6.36164 5.30655,-2.47977 9.99971,-5.0773 10.42925,-5.77231 0.81408,-1.31721 0.74274,-4.90866 -0.26199,-13.18836 -0.73671,-6.07111 -5.35722,-11.44681 -15.89899,-18.49758 -8.981461,-6.00716 -20.890601,-10.37478 -37.299681,-13.67947 -6.96719,-1.40315 -13.30397,-3.17566 -14.08172,-3.93892 -2.08981,-2.05085 0.0956,-4.22613 7.73469,-7.69877 4.22998,-1.9229 6.87608,-3.85253 8,-5.83388 0.92368,-1.62833 2.49648,-3.22416 3.49511,-3.54628 3.09979,-0.99985 8.6843,-6.51634 8.6843,-8.57851 0,-1.07919 0.44285,-2.78962 0.9841,-3.80097 0.82209,-1.53608 0.16354,-2.46459 -4,-5.63974 -2.74125,-2.09051 -4.9841,-3.82732 -4.9841,-3.85956 0,-0.0322 -0.904,-2.52728 -2.0089,-5.54452 -2.36151,-6.44882 -2.19741,-6.68572 6.99359,-10.09605 3.79947,-1.4098 6.16046,-3.03318 7.58906,-5.21814 1.14056,-1.74443 16.88503,-24.54669 34.987711,-50.67169 18.10938,-26.13467 35.40896,-52.22286 38.46092,-58 4.66516,-8.83081 6.31453,-11.01665 10.37531,-13.75 6.15698,-4.14432 8.66286,-4.09353 13.49673,0.27358 l 3.90018,3.52357 3.3527,-4.24187 c 1.84398,-2.33303 9.1169,-10.33114 16.16203,-17.77358 7.04513,-7.44243 15.58116,-17.57696 18.96895,-22.52117 10.34769,-15.10162 15.20378,-19.38473 23.80806,-20.9989 3.11646,-0.58466 4.15777,-0.13518 9.65276,4.16651 3.3877,2.65202 9.44478,8.86917 13.46018,13.81588 14.84648,18.28991 18.96728,21.93157 36.80181,32.52274 24.18182,14.36055 20.20757,14.09744 32.25386,2.13538 24.59421,-24.42224 52.24198,-40.15267 82.24505,-46.79403 11.21716,-2.48298 49.54468,-2.47995 63.99387,0.005 25.51687,4.38847 45.57561,11.60868 66.50613,23.93909 9.75168,5.74483 29.53282,21.2975 35.9698,28.2808 l 4.36998,4.74087 4.58011,-1.29632 c 2.51906,-0.71297 6.22644,-1.76783 8.23861,-2.34413 7.80915,-2.23659 17.07647,5.83382 27.4177,23.8766 8.01128,13.97761 8.57538,14.6701 13.20054,16.20507 3.25613,1.08063 4.71441,2.29223 6.1108,5.0771 3.73533,7.44955 7.11476,17.15018 12.54877,36.02115 3.06669,10.64987 6.72975,22.12487 8.14013,25.5 3.87241,9.2669 4.36025,11.39683 5.83152,25.46075 1.21073,11.5733 1.80607,13.957 5.47524,21.92229 2.26424,4.91537 4.1168,9.31033 4.1168,9.76656 0,0.45624 0.64127,1.53995 1.42504,2.40826 0.78378,0.86831 1.57128,2.92874 1.75,4.57874 l 0.32496,3 -10.36415,0.68727 c -5.70028,0.378 -13.41666,1.61444 -17.14751,2.74765 -5.77418,1.75386 -7.5212,2.8677 -11.74282,7.48682 l -4.95945,5.42643 -0.52896,9.27706 -0.52895,9.27706 7.51513,7.04886 c 4.13331,3.87687 12.51948,10.1202 18.63592,13.87407 14.31712,8.78691 17.12298,10.97053 19.04354,14.82039 3.1632,6.34078 2.09316,7.22856 -15.42275,12.7959 -16.81815,5.34556 -17.52676,5.71459 -34.02312,17.71829 -7.43771,5.41211 -16.21271,11.26646 -19.5,13.00966 -9.75826,5.17468 -26.27905,9.26934 -57.80465,14.32681 -10.35528,1.66124 -22.95528,3.92347 -28,5.02718 -8.54495,1.86951 -11.39609,1.9609 -41.68989,1.33642 -41.48235,-0.85512 -55.39622,0.44778 -75.98234,7.11499 -11.57562,3.74899 -20.95303,5.33533 -47.76109,8.07954 -26.00013,2.66151 -62.99588,3.89 -75.73891,2.515 z m 51.37851,-4.58958 c 29.02369,-2.91061 56.16918,-7.18243 66.33582,-10.43909 7.70845,-2.46924 14.51024,-3.63412 32.99781,-5.65122 20.43092,-2.22914 26.78423,-2.5061 51.78786,-2.25756 28.41878,0.28249 28.54702,0.27427 45,-2.88452 9.075,-1.7423 22.8,-4.08574 30.5,-5.20765 29.04977,-4.23264 42.14779,-8.54469 55.83355,-18.38119 25.80659,-18.54824 31.79919,-21.79763 49.41645,-26.79534 4.5375,-1.28721 8.25,-2.67256 8.25,-3.07856 0,-1.23567 -9.8199,-8.65105 -23.01914,-17.38263 -6.88553,-4.55493 -13.60147,-9.43377 -14.92432,-10.84187 -3.4099,-3.62967 -4.50995,-3.21761 -5.90113,2.21049 -6.43998,25.12749 -31.96801,34.17738 -113.5325,40.24814 -36.86911,2.74413 -52.5371,1.59439 -82.78952,-6.07518 -4.21664,-1.069 -10.07845,-1.94364 -13.02624,-1.94364 -11.40666,0 -22.10513,-1.98026 -29.49695,-5.4598 -4.55724,-2.14522 -7.99891,-3.17286 -9.39954,-2.80659 -1.4863,0.38868 -2.65489,-0.0309 -3.56945,-1.28165 -1.31153,-1.79363 -1.55024,-1.76608 -6.73615,0.77733 -4.55228,2.23265 -7.27181,2.74333 -17.74075,3.33145 -13.12114,0.73711 -17.6064,1.79779 -12.35018,2.92057 4.02137,0.85901 5.7065,1.81643 5.31309,3.01869 -0.49313,1.50702 -15.18061,0.82316 -43.82722,-2.04063 -14.025,-1.40207 -27.3,-2.42533 -29.5,-2.27391 -2.98932,0.20576 -4,-0.0987 -4,-1.20507 0,-1.06506 1.62402,-1.65489 5.78864,-2.10237 3.18376,-0.34208 6.03409,-0.86742 6.33408,-1.16741 0.29999,-0.29999 0.78511,-2.33233 1.07804,-4.51631 l 0.53261,-3.97088 -12.86668,0.47927 c -10.53812,0.39254 -15.86387,0.0165 -29.42782,-2.07783 -13.50548,-2.0853 -20.42451,-2.5775 -37.5,-2.66766 -11.51638,-0.0608 -23.89727,0.36994 -27.5131,0.95723 -12.06413,1.95947 -22.76535,1.4605 -20.2629,-0.9448 0.46042,-0.44255 7.02098,-2.04541 14.57902,-3.56191 7.55804,-1.5165 13.50163,-2.99753 13.20797,-3.29119 -0.29365,-0.29366 -2.65251,-0.77751 -5.24189,-1.07523 -2.58938,-0.29771 -4.58691,-0.9913 -4.43895,-1.5413 0.6551,-2.43513 8.87414,-2.88259 16.73029,-0.91082 2.49788,0.62693 2.50069,0.61936 2.50086,-6.73077 1e-4,-4.04713 0.65101,-10.75961 1.44648,-14.91663 1.6984,-8.87565 6.78128,-28.05216 8.65509,-32.65361 0.71936,-1.76651 1.0264,-3.49336 0.68232,-3.83745 -2.69416,-2.69416 -24.4422,-3.23993 -38.28406,-0.96075 -4.95,0.81506 -16.65,3.52427 -26,6.02048 -38.4188,10.25679 -39.7706,10.49266 -65.315921,11.39646 -12.82376,0.45371 -23.7425,1.25151 -24.26388,1.77289 -0.59729,0.59729 1.92411,1.61925 6.81592,2.76259 15.96309,3.73099 34.446031,11.89128 43.951051,19.40457 6.28504,4.96804 10.12041,12.3071 11.10707,21.25362 0.38817,3.51968 1.15576,6.37798 1.70576,6.35178 0.55,-0.0262 3.62141,-0.41979 6.82536,-0.87464 4.00497,-0.56857 6.1768,-0.47555 6.95,0.29764 1.96659,1.96659 -0.662,3.30926 -12.21374,6.2387 -6.0602,1.53682 -12.26574,3.65356 -13.79008,4.70387 -1.52435,1.05031 -6.19092,3.81222 -10.37015,6.13758 -4.179231,2.32536 -8.904231,5.32621 -10.500001,6.66857 -3.33268,2.80344 -4.40377,1.60905 8.955041,9.98589 11.426,7.16483 34.66816,17.9006 43.95342,20.30249 4.29542,1.11113 15.32042,3.18717 24.5,4.61344 22.14847,3.44128 23.4644,3.76604 39.16451,9.66558 24.29332,9.12857 33.19373,11.7713 53.50322,15.88631 40.91121,8.28924 54.31921,9.31847 83.40093,6.40203 z m 186.57676,-66.50125 c 50.1899,-4.40255 61.42113,-6.10201 80.45872,-12.17465 8.72549,-2.78327 9.90756,-3.48927 16.16274,-9.6534 5.39195,-5.31347 7.056,-7.70254 8.277,-11.88329 4.69937,-16.0909 4.80921,-56.6791 0.23073,-85.26723 -6.13161,-38.28599 -10.0599,-55.26909 -14.6879,-63.5 -0.92775,-1.65 -3.11699,-7.46308 -4.86498,-12.91797 -4.0522,-12.64554 -9.08444,-22.61928 -18.00421,-35.68382 -10.83181,-15.86503 -16.25955,-21.7734 -32.02737,-34.86341 -12.2529,-10.17202 -16.51464,-13.03881 -27.5,-18.49869 -28.97415,-14.40055 -63.34995,-22.94836 -89.03092,-22.1382 -10.38656,0.32766 -12.94576,0.70249 -13.67335,2.00262 -1.05577,1.88655 -5.98833,4.59947 -8.36265,4.59947 -1.23809,0 -1.54344,-0.64238 -1.18833,-2.5 0.6081,-3.18108 -0.27276,-3.18885 -12.41162,-0.10958 -21.69335,5.50297 -40.74061,15.37826 -58.83313,30.50275 -8.90381,7.44317 -28.00527,26.07225 -35.74069,34.85683 -8.64247,9.81465 -9.50876,7.18621 -0.97544,-2.95962 2.1786,-2.59029 3.72684,-5.29029 3.44051,-6 -0.51732,-1.28228 -8.53971,-6.39537 -26.72438,-17.03284 -11.86379,-6.93996 -17.60614,-11.96783 -24.72853,-21.65176 -3.07667,-4.18318 -9.34762,-11.37737 -13.93544,-15.98708 -8.24787,-8.28724 -8.3879,-8.37508 -12.47657,-7.82668 -5.24034,0.70288 -11.90734,7.0051 -18.87289,17.84026 -2.69859,4.19775 -7.23528,9.59775 -10.08153,12 -17.83026,15.04883 -29.59294,28.25137 -31.26437,35.0914 -0.36606,1.49802 -2.40613,4.44694 -4.53349,6.55315 -2.12736,2.1062 -5.89859,6.99749 -8.3805,10.86953 -2.48191,3.87203 -5.68389,7.96142 -7.11551,9.08753 -1.43162,1.12611 -3.70991,4.00917 -5.06287,6.40679 -1.35296,2.39763 -4.91759,7.05932 -7.92141,10.35932 -3.00382,3.3 -7.22737,7.98315 -9.38567,10.40699 -2.3277,2.61409 -4.39469,4.11619 -5.08072,3.69221 -2.00181,-1.23719 6.32113,-12.47669 32.26628,-43.57315 5.26527,-6.31067 9.57321,-12.16067 9.57319,-13 -3e-5,-1.7731 -6.21978,-7.02605 -8.31918,-7.02605 -2.4299,0 -9.39753,8.48744 -13.25355,16.14447 -4.10339,8.14825 -11.80705,19.62612 -26.3145,39.20662 -21.48235,28.99443 -43.112741,61.16366 -43.112741,64.1183 0,0.71525 3.04049,0.0102 15.051661,-3.49047 23.87316,-6.95778 52.9523,-11.94895 69.73775,-11.96985 19.68121,-0.0245 40.72164,4.30339 56.10937,11.54135 6.64359,3.12495 10.76975,4.51572 12.29938,4.14564 1.26601,-0.3063 4.10184,-1.02748 6.30184,-1.60263 2.2,-0.57514 6.025,-1.05896 8.5,-1.07515 7.00365,-0.0458 11.90651,-1.74355 12.45579,-4.31313 0.25926,-1.21283 1.21052,-6.00649 2.11391,-10.65257 0.90339,-4.64608 2.69982,-11.68637 3.99208,-15.64509 4.46481,-13.67757 16.38412,-38.40749 18.51161,-38.40749 1.59937,0 1.04458,1.80976 -3.05323,9.95991 -6.54852,13.02435 -15.98189,44.42164 -16.0111,53.29009 -0.009,2.67843 0.14058,2.75085 5.74094,2.78272 3.1625,0.018 8.9,0.51898 12.75,1.1133 3.85,0.59431 14.27372,1.21638 23.16382,1.38236 20.1702,0.37659 21.86591,1.02126 33.43829,12.71239 13.82341,13.96526 18.42121,19.72033 26.6801,33.39553 l 4.28221,7.09054 5.71779,0.70542 c 16.61299,2.04957 22.35823,2.23645 40.6152,1.32112 14.0925,-0.70655 24.74108,-0.66755 36.5,0.13366 13.70893,0.93407 19.56551,0.86433 33.60259,-0.40016 9.35,-0.84226 24.65,-2.17846 34,-2.96932 9.35,-0.79086 19.78562,-1.69062 23.19027,-1.99947 4.37474,-0.39686 6.50025,-0.18857 7.24715,0.71018 3.75432,4.51758 9.06258,12.42196 9.06258,13.49482 0,2.74232 -3.52834,1.04144 -8.05611,-3.88354 l -4.74426,-5.16045 -14.84981,0.64855 c -8.1674,0.3567 -24.49571,1.55391 -36.28512,2.66045 -11.78942,1.10655 -25.90301,2.0119 -31.36355,2.0119 l -9.92824,0 0.66152,4.41133 c 1.1794,7.86477 -3.54575,7.00357 -5.56465,-1.0142 l -1.08867,-4.3235 -36.43923,-0.008 c -20.04158,-0.004 -36.86733,-0.27246 -37.39056,-0.59583 -1.61601,-0.99876 -1.06261,1.91137 1.61797,8.50834 5.62093,13.83317 9.32609,37.03302 6.465,40.48043 -2.00853,2.42012 -3.03263,0.82238 -3.05593,-4.76771 -0.062,-14.86716 -10.63333,-45.03761 -21.24095,-60.62134 -11.30863,-16.61358 -27.6977,-32.67823 -35.88053,-35.17027 -1.84628,-0.56215 -10.10688,-1.4296 -18.35688,-1.92754 -8.25,-0.49794 -18.6,-1.37152 -23,-1.94129 -4.47129,-0.57899 -12.99589,-0.74743 -19.32628,-0.38186 l -11.32627,0.65407 7.32627,3.82219 c 4.87903,2.54543 9.17221,5.81663 12.8524,9.79292 5.28549,5.71075 14.64527,20.10963 15.70421,24.15902 0.81963,3.13431 -1.54422,2.18994 -3.32104,-1.32676 -1.68883,-3.34256 -8.43866,-12.74777 -11.61802,-16.18856 -0.9852,-1.06621 -1.79127,-2.25995 -1.79127,-2.65276 0,-0.39281 -2.54357,-2.40253 -5.65238,-4.46604 -6.84033,-4.54035 -17.8122,-8.18019 -25.7693,-8.54878 -5.32863,-0.24684 -6.14027,-0.002 -8.84392,2.66718 -4.76406,4.70341 -12.56856,16.2434 -17.23226,25.48018 -8.59907,17.03108 -12.31346,31.88529 -13.21899,52.86416 -0.52287,12.11332 -0.40651,13.53125 1.20725,14.71126 1.18187,0.8642 2.36252,0.99726 3.49084,0.3934 1.44853,-0.77523 1.79637,-3.2134 2.31274,-16.21125 1.11075,-27.95957 6.99445,-47.90872 17.72035,-60.08232 7.56973,-8.59143 13.84596,-9.85823 23.76419,-4.79658 7.69112,3.92507 11.08617,6.58675 16.51709,12.94924 7.984,9.3535 11.36169,17.13003 14.22779,32.75695 1.39951,7.63065 4.1542,20.83884 6.12152,29.35153 2.74364,11.87186 3.43598,16.67696 2.97187,20.62584 l -0.60508,5.14825 12.83918,1.23397 c 11.19084,1.07555 13.91825,1.02531 21.24415,-0.39134 4.62273,-0.89392 15.82996,-2.04114 24.90496,-2.54937 18.57174,-1.0401 24.01665,-2.34654 31.62824,-7.58884 5.3263,-3.66836 7.37176,-3.82155 7.37176,-0.55209 0,0.9823 0.80629,2.51567 1.79174,3.4075 3.06516,2.77393 24.64686,9.68847 30.2397,9.68847 5.75462,0 18.56043,2.45495 23.88575,4.57905 9.04236,3.6067 47.71472,4.27871 80.53808,1.39952 z M 312.1819,676.98141 c -0.52586,-1.3831 -1.25913,-6.8956 -1.62949,-12.25 -0.46175,-6.67563 -1.88204,-13.93711 -4.51914,-23.1049 -2.11518,-7.3533 -3.84577,-14.43169 -3.84577,-15.72976 0,-1.29807 -0.71766,-4.15374 -1.59481,-6.34594 -2.0417,-5.10271 -1.3729,-7.4612 1.062,-3.74508 6.0118,9.17517 15.94143,50.29366 14.71639,60.94042 -0.39898,3.46752 -2.90674,3.60835 -4.18918,0.23526 z m 304.57703,-58.05669 c -1.99407,-1.99406 -1.69017,-4.78202 0.56868,-5.21704 2.08871,-0.40224 5.0506,2.55965 4.64836,4.64836 -0.43502,2.25885 -3.22298,2.56275 -5.21704,0.56868 z M 506.69498,602.50826 c -1.07266,-1.73561 -3.62694,-23.87518 -3.3115,-28.70291 0.33585,-5.14001 2.04209,-6.60139 3.82277,-3.27417 1.28134,2.3942 3.49906,29.17321 2.60824,31.49463 -0.64737,1.68704 -2.2243,1.93092 -3.11951,0.48245 z m -99.04838,-1.2581 c -0.29807,-0.77676 -0.41081,-5.42668 -0.25052,-10.33315 0.26647,-8.15705 0.46266,-8.92086 2.29142,-8.92086 1.70007,0 2.04458,0.76576 2.29727,5.10624 0.1635,2.80843 -0.0659,7.27239 -0.50974,9.91992 -0.79889,4.76516 -2.7819,6.95507 -3.82843,4.22785 z m -26.69974,-37.28318 c -3.70736,-0.73768 -7.23008,-1.64372 -7.82828,-2.01342 -0.59819,-0.36971 -5.904,-1.05936 -11.79068,-1.53255 -13.49355,-1.08468 -22.7244,-2.98906 -36.6404,-7.55915 -13.12301,-4.30966 -16.5,-5.92476 -16.5,-7.89139 0,-2.11797 1.82559,-1.85742 11.18178,1.59585 20.29767,7.49166 27.94482,9.06726 48.32906,9.95762 24.97268,1.09078 35.48916,2.88288 35.48916,6.04765 0,1.22892 -6.91022,2.92644 -11.5,2.82502 -2.2,-0.0486 -7.03329,-0.69195 -10.74064,-1.42963 z m 133.79343,-2.38542 c -0.32198,-0.52097 -0.15917,-1.21065 0.3618,-1.53262 0.52097,-0.32198 1.21065,-0.15917 1.53262,0.3618 0.32198,0.52097 0.15917,1.21065 -0.3618,1.53262 -0.52097,0.32198 -1.21065,0.15917 -1.53262,-0.3618 z m -41.10813,-9.36903 c -0.27091,-0.70599 -0.36929,-9.3314 -0.21862,-19.16757 0.28397,-18.53721 1.12947,-21.87322 3.88703,-15.3365 1.72181,4.08151 1.68144,30.43462 -0.0516,33.6728 -1.27507,2.38249 -2.88002,2.75136 -3.61683,0.83127 z M 579.7609,532.61492 c -0.37557,-0.6077 -1.31116,-3.24552 -2.07908,-5.86184 -3.78785,-12.90524 -7.24298,-21.2114 -10.24432,-24.62745 -3.34505,-3.80726 -4.03001,-6.02937 -2.20602,-7.15666 2.909,-1.79786 10.5541,9.16112 13.97117,20.02718 0.69184,2.2 2.32903,6.1375 3.63821,8.75 2.22131,4.43267 2.63768,4.75 6.2325,4.75 6.24785,0 20.98934,-2.89072 26.22297,-5.14216 5.07042,-2.18124 7.89117,-1.97018 7.89117,0.59045 0,1.66889 -5.82203,4.95824 -10.5,5.93232 -1.65,0.34357 -7.5,1.07737 -13,1.63067 -5.5,0.55329 -12.07984,1.27742 -14.62187,1.60918 -2.92053,0.38116 -4.87323,0.19649 -5.30473,-0.50169 z M 186.35875,511.82736 c 0.19398,-1.01731 1.38422,-1.97842 2.67793,-2.16242 1.80292,-0.25642 2.2499,0.0823 1.97957,1.5 -0.19398,1.01731 -1.38422,1.97842 -2.67793,2.16242 -1.80292,0.25642 -2.2499,-0.0823 -1.97957,-1.5 z m 247.32875,-6.74551 c -0.55,-0.22592 -2.26947,-0.69172 -3.82104,-1.03511 -1.58252,-0.35025 -2.64432,-1.15695 -2.41851,-1.83747 0.81065,-2.44313 95.75914,-6.10847 97.215,-3.75284 1.29568,2.09645 -1.53786,3.007 -9.47545,3.04491 -4.125,0.0197 -15.15,0.6903 -24.5,1.49023 -17.08382,1.46159 -55.13357,2.85693 -57,2.09028 z m -241.09815,-3.98089 c -0.67489,-1.75873 1.31092,-9.30926 2.66913,-10.14868 1.64263,-1.0152 3.92902,1.57075 3.92902,4.44381 0,4.99441 -5.15908,9.45504 -6.59815,5.70487 z m 159.59815,0.76942 c -12.22784,-2.39843 -34.57768,-9.60632 -42.96416,-13.85607 -2.81096,-1.42442 -5.59216,-2.29237 -6.18047,-1.92878 -1.412,0.87267 -0.0868,-3.61741 1.5919,-5.39361 1.00086,-1.05901 1.72588,-0.65754 3.85597,2.13516 1.97049,2.58343 4.43679,4.08498 9.91006,6.03348 11.29834,4.02225 33.3559,8.63385 41.2867,8.63185 3.85574,-9.8e-4 4.10779,-0.20831 6.98871,-5.74864 3.66586,-7.04986 16.15844,-20.00047 17.75398,-18.40493 0.76957,0.76957 -0.21416,3.01621 -3.44483,7.86725 -5.9553,8.94224 -9.79786,15.12705 -9.79786,15.77019 0,0.28593 1.03899,0.51987 2.30887,0.51987 3.05254,0 6.43873,2.41993 4.80181,3.4316 -1.42429,0.88026 -22.54187,1.64263 -26.11068,0.94263 z m -178,-6.02053 c 0,-0.90546 1.99497,-3.77907 4.43327,-6.38581 3.05473,-3.26576 4.62934,-5.94109 5.06384,-8.6037 0.70859,-4.34228 4.93946,-15.22094 7.01028,-18.02524 1.05121,-1.42354 1.63038,-1.57045 2.5639,-0.65034 0.93984,0.92634 0.62371,2.7594 -1.43268,8.30721 -1.45123,3.91523 -2.63861,8.45782 -2.63861,10.09463 0,4.42163 -4.58107,12.6834 -8.28512,14.94187 -3.92639,2.39403 -6.71488,2.5275 -6.71488,0.32138 z m 121,0.33743 c 0,-1.93376 2.7178,-5.30667 3.58068,-4.44378 0.94419,0.94419 -1.195,5.75265 -2.55924,5.75265 -0.56179,0 -1.02144,-0.58899 -1.02144,-1.30887 z m -98,-8.25687 c 0,-2.73682 2.00297,-5.43426 4.03518,-5.43426 2.41546,0 2.64564,3.17632 0.39339,5.42857 -2.01873,2.01873 -4.42857,2.02182 -4.42857,0.006 z m -40.52707,-8.47806 c -0.79421,-1.28507 1.29242,-3.9562 3.0905,-3.9562 2.00243,0 2.7568,1.90923 1.40022,3.5438 -1.41273,1.70223 -3.57106,1.90044 -4.49072,0.4124 z m 63.09879,0.15984 c -1.33534,-2.16062 2.36613,-19.11373 5.52522,-25.30606 1.90168,-3.72759 5.00084,-5.07882 6.41195,-2.79559 1.73847,2.8129 -6.79872,28.23295 -9.66565,28.78013 -0.91122,0.17392 -1.93341,-0.1314 -2.27152,-0.67848 z m 20.85756,-12.36604 c 1.17092,-19.18618 3.37358,-28.22594 6.41902,-26.34376 1.52449,0.94219 1.45308,4.48267 -0.4141,20.53018 -1.6499,14.18012 -2.51138,17.06358 -5.09804,17.06358 -1.40421,0 -1.51192,-1.33613 -0.90688,-11.25 z m 68.57072,8.30902 c 0,-0.58246 0.45,-1.05902 1,-1.05902 0.55,0 1,0.19844 1,0.44098 0,0.24254 -0.45,0.7191 -1,1.05902 -0.55,0.33992 -1,0.14148 -1,-0.44098 z m 2.63837,-3.55902 c 0.31659,-0.825 0.96334,-1.5 1.43723,-1.5 0.4739,0 0.60261,0.675 0.28603,1.5 -0.31659,0.825 -0.96334,1.5 -1.43723,1.5 -0.4739,0 -0.60261,-0.675 -0.28603,-1.5 z m -151.19768,-0.59596 c -1.05677,-1.7099 2.27751,-4.58584 3.68495,-3.1784 0.62696,0.62696 0.8693,1.84517 0.53853,2.70714 -0.69209,1.80355 -3.22538,2.08621 -4.22348,0.47126 z m 3.02201,-5.9644 c -1.11763,-1.80835 1.61082,-6.93964 3.69001,-6.93964 2.49328,0 3.39385,2.50502 2.00019,5.56377 -1.13651,2.49436 -4.49678,3.30686 -5.6902,1.37587 z m 45.93777,-0.33841 c -0.6513,-1.69728 2.75944,-8.63511 11.11113,-22.60123 4.79068,-8.01122 6.88776,-12.79988 8.84746,-20.20304 3.28349,-12.40407 8.51186,-22.96149 12.20448,-24.64396 5.13002,-2.33739 5.3056,0.0923 0.66732,9.23476 -2.84169,5.60126 -4.68271,10.94472 -5.61932,16.30973 -1.45888,8.35666 -3.33839,12.9397 -7.20839,17.57713 -1.2735,1.52603 -4.84596,7.07431 -7.93881,12.3295 -7.34943,12.48775 -10.62543,15.74562 -12.06387,11.99711 z m 275.79322,-2.35123 c -0.57693,-1.5125 -1.33459,-4.89085 -1.68371,-7.50744 -0.51519,-3.86127 -0.32778,-4.87524 0.99485,-5.38279 0.89628,-0.34393 2.09294,-0.162 2.65923,0.40429 1.09043,1.09043 2.70008,12.14353 2.0517,14.08865 -0.69676,2.0903 -2.95696,1.18966 -4.02207,-1.60271 z m -291.68092,-4.22933 c -1.43045,-2.31453 4.19337,-7.93835 6.5079,-6.5079 1.57109,0.97099 1.15003,2.40744 -1.47522,5.03268 -2.62524,2.62525 -4.06169,3.04631 -5.03268,1.47522 z m 72.30673,-4.94801 c -5.13377,-4.03823 -7.2869,-13.34045 -2.67851,-11.57205 1.9388,0.74398 8.98913,11.47984 8.28602,12.61749 -0.87564,1.41682 -2.97478,1.02546 -5.60751,-1.04544 z m 18.59311,-9.0094 c -2.79807,-1.60489 -5.8576,-4.09345 -6.79895,-5.53014 -0.94136,-1.43669 -3.23952,-3.34079 -5.10703,-4.23135 -1.8675,-0.89055 -3.8799,-2.78527 -4.47198,-4.21048 -0.59208,-1.42521 -2.4171,-3.35786 -4.05558,-4.29478 -3.16059,-1.80729 -3.92887,-4.49481 -1.54628,-5.40909 1.74529,-0.66973 10.37058,5.58417 19.38496,14.05537 3.67524,3.45378 8.14475,7.02862 9.93225,7.94409 1.7875,0.91546 3.25,2.32792 3.25,3.1388 0,2.41762 -5.03527,1.72211 -10.58739,-1.46242 z m -28.68832,-31.83709 c -3.38962,-2.10116 -3.15408,-4.61646 0.47165,-5.03655 1.96296,-0.22744 3.11945,0.36209 4.32764,2.20602 2.85532,4.35777 0.19531,5.92659 -4.79929,2.83053 z m 29.49065,264.92421 c 3.69322,-0.41081 7.00043,-1.03242 7.34936,-1.38135 0.85933,-0.85933 -8.17274,-44.31319 -11.24563,-54.10344 -2.22101,-7.07614 -3.19844,-8.60835 -10.09881,-15.8309 -8.01501,-8.3892 -13.1307,-11.96423 -19.61306,-13.7063 -3.7324,-1.00304 -4.07883,-0.88286 -8.3871,2.90943 -9.78414,8.61234 -17.29102,22.08811 -20.86888,37.46218 -1.82352,7.83567 -2.8931,33.16265 -1.54496,36.58367 0.96648,2.45253 1.59366,2.64566 12.35615,3.80474 6.2359,0.67159 16.73799,2.04572 23.33799,3.05363 13.47727,2.05816 18.98956,2.29012 28.71494,1.20834 z M 655.4391,619.03274 c 5.30378,-2.21217 16.9929,-4.53659 22.81378,-4.53659 2.71404,0 4.93462,-0.41176 4.93462,-0.91501 0,-1.53168 -8.43913,-8.45037 -13.2195,-10.8378 -3.77122,-1.88344 -6.13145,-2.24719 -14.58101,-2.24719 -5.91547,0 -10.34767,0.43074 -10.72568,1.04237 -0.35432,0.5733 -0.32124,6.45377 0.0735,13.06771 l 0.71773,12.02535 3.11747,-3.01704 c 1.71461,-1.65936 4.80569,-3.72117 6.86907,-4.5818 z m -542.85102,-0.51959 c 6.37963,-1.09066 22.51185,-4.70926 35.84937,-8.04135 37.66064,-9.4087 53.63259,-11.40125 68.25005,-8.51441 2.90147,0.57302 3.30155,0.15641 12.18101,-12.68438 6.98207,-10.09692 8.89815,-13.54817 8,-14.40961 -2.21411,-2.12364 -35.80782,-13.39241 -43.00619,-14.42613 -3.94615,-0.56668 -13.92482,-1.04772 -22.17482,-1.06897 -31.16706,-0.0803 -61.57579,6.48977 -93.398361,20.17947 -3.87767,1.66813 -5.10164,2.71153 -5.10164,4.34902 0,2.94556 2.32191,6.01716 6.50093,8.59994 4.46543,2.75978 5.21977,5.87177 3.07364,12.6801 -1.41809,4.49868 -2.54552,6.0202 -6.64131,8.96273 -8.05926,5.79001 -7.17084,6.35659 9.96737,6.35659 10.2918,0 18.488341,-0.61335 26.499951,-1.983 z m 562.25503,-25.67507 c -1.37163,-4.31306 -2.92943,-12.34193 -3.46178,-17.84193 -0.66686,-6.8898 -2.22994,-13.88774 -5.02566,-22.5 -2.23178,-6.875 -5.23257,-16.775 -6.66843,-22 -1.43586,-5.225 -3.29712,-10.85 -4.13613,-12.5 -0.83901,-1.65 -2.393,-5.76675 -3.45332,-9.14833 -3.3529,-10.69315 -6.82549,-17.35167 -9.04934,-17.35167 -3.77515,0 -6.02081,-2.16986 -8.90994,-8.60918 -6.84267,-15.25103 -18.1333,-28.93043 -25.76589,-31.21721 -5.93995,-1.77965 -13.18512,0.092 -13.18512,3.40619 0,1.87212 7.15683,12.19913 9.99349,14.4202 3.27649,2.56545 17.54516,34.49594 21.89646,49 1.73253,5.775 4.24241,14.1 5.57752,18.5 4.48295,14.77404 6.43043,23.90786 8.52867,40 1.14743,8.8 2.20032,16.39787 2.33976,16.88415 0.13945,0.48629 4.73341,0.9432 10.20882,1.01537 8.90833,0.11742 10.63885,0.45626 16.45528,3.22194 3.575,1.6999 6.64613,2.97185 6.82474,2.82656 0.1786,-0.14529 -0.79751,-3.79303 -2.16913,-8.10609 z M 165.18103,392.56181 c -7.48413,-2.27657 -15.06241,-9.07377 -17.28997,-15.50792 l -1.35719,-3.92015 -5.9689,0.2436 c -12.02554,0.49079 -23.96979,-7.0459 -29.92317,-18.88119 -3.2604,-6.48168 -4.37635,-17.28112 -2.53952,-24.57585 1.59477,-6.33341 7.2213,-14.84251 12.01821,-18.17536 2.17595,-1.51184 4.47378,-4.09879 5.10627,-5.74879 3.27124,-8.53366 4.61104,-10.85478 8.06874,-13.97861 6.20314,-5.60416 9.61102,-6.96898 17.392,-6.9653 8.74805,0.004 13.06691,2.11375 20.14262,9.83897 3.69126,4.03009 5.85818,5.60494 7.71216,5.60494 1.63199,0 4.40641,1.62347 7.55832,4.42282 4.72606,4.19741 5.15493,4.3691 8.41467,3.36866 5.48954,-1.68479 11.81893,-0.21373 16.56701,3.85045 9.7874,8.37765 9.44374,17.17061 -0.99946,25.5725 -2.6653,2.14432 -5.07996,3.05234 -9.26581,3.48436 -5.58636,0.57656 -5.68785,0.64467 -7.68352,5.15621 -1.11231,2.51456 -2.74124,5.36626 -3.61984,6.33711 -1.48139,1.63691 -1.32623,2.0654 2.13536,5.89697 9.35453,10.35435 8.20251,20.84499 -3.24818,29.57872 -6.40442,4.88481 -15.78079,6.66071 -23.2198,4.39786 z m 20.49431,-5.50567 c 8.44036,-4.94638 11.48709,-13.84888 7.53412,-22.01463 -1.20649,-2.49227 -3.50499,-5.46518 -5.10779,-6.60647 -3.4794,-2.47756 -3.55654,-3.15103 -0.78955,-6.89357 1.16854,-1.58054 2.94349,-5.27482 3.94434,-8.20951 l 1.81972,-5.33581 4.48976,0.32594 c 5.50626,0.39974 12.75026,-2.56653 15.12726,-6.1943 4.53449,-6.9205 2.095,-15.56805 -5.46759,-19.38164 -4.96918,-2.50581 -8.82769,-2.81715 -13.58665,-1.09629 -3.05997,1.1065 -3.36981,0.96852 -7.571,-3.37164 -3.45787,-3.57225 -5.32823,-4.67315 -8.88046,-5.22708 -3.95715,-0.61707 -4.8619,-1.26479 -7.5,-5.36932 -4.35921,-6.78235 -10.07646,-9.68475 -19.07842,-9.68526 -6.13867,-3.6e-4 -7.73024,0.40258 -11.98803,3.03497 -5.33578,3.29886 -8.94259,8.59919 -9.96345,14.64161 -0.51731,3.06192 -1.48735,4.26728 -5.51319,6.85066 -12.72424,8.16512 -16.8844,27.94748 -8.99146,42.75615 5.67779,10.65263 14.9809,15.65597 27.9998,15.05869 l 7.46526,-0.34249 0.77502,4.49849 c 1.77535,10.30478 11.08795,16.38806 23.96964,15.65771 4.98716,-0.28275 7.8479,-1.06572 11.31267,-3.09621 z M 541.752,344.41864 c -3.31249,-2.9084 -3.62885,-2.99083 -5.7573,-1.5 -7.18292,5.03111 -17.98353,-3.51505 -14.971,-11.84605 0.64009,-1.77014 1.1638,-4.92693 1.1638,-7.01509 0,-3.07691 0.73598,-4.53262 3.88235,-7.679 3.2917,-3.2917 4.52888,-3.88235 8.13197,-3.88235 4.36758,0 10.33327,2.85747 11.31683,5.42057 0.29128,0.75906 2.3413,1.68619 4.55561,2.0603 4.25413,0.71873 10.21309,6.10765 11.60575,10.49552 1.67326,5.272 -1.89013,12.6265 -7.53115,15.54359 -4.55581,2.3559 -8.46843,1.85172 -12.39686,-1.59749 z m 11.7884,-1.03742 c 1.34585,-0.61321 3.2371,-2.86706 4.20278,-5.00854 1.49415,-3.31345 1.5774,-4.48897 0.55869,-7.88912 -1.66078,-5.5432 -4.38685,-7.15945 -13.36437,-7.92357 -0.4125,-0.0351 -0.75,-0.70618 -0.75,-1.49126 0,-2.68645 -5.01359,-5.57258 -9.68031,-5.57258 -6.32977,0 -9.31969,3.17466 -9.31969,9.89553 0,2.74254 -0.45,5.26455 -1,5.60447 -1.83177,1.1321 -1.03132,5.55958 1.45455,8.04545 2.84122,2.84123 6.57057,3.1435 10.45726,0.84757 2.6388,-1.55878 2.81357,-1.51379 5.82737,1.5 3.34251,3.34252 7.19825,4.00387 11.61372,1.99205 z M 348.1875,275.77918 c -0.825,-0.30749 -3.61511,-2.09386 -6.20025,-3.9697 -5.54751,-4.02542 -9.5421,-11.34224 -10.47012,-19.17792 -0.5746,-4.85162 -0.9121,-5.39192 -4.51681,-7.2309 -4.69496,-2.39519 -11.05096,-8.5745 -13.47594,-13.10133 -1.15729,-2.16036 -1.78115,-5.55202 -1.80318,-9.80318 -0.0391,-7.54588 2.79463,-13.44706 9.12727,-19.00719 6.38328,-5.6046 11.71906,-7.47327 21.33903,-7.47327 9.58388,0 14.95676,1.86956 21.24832,7.39363 3.28618,2.8853 4.33564,3.22089 10.61487,3.39434 5.9651,0.16478 7.59208,0.62889 11.30249,3.22415 5.87146,4.10681 10.62302,11.39477 11.43888,17.54502 0.35921,2.70782 0.93263,4.92081 1.27427,4.91774 0.34164,-0.003 2.35466,-0.48692 4.47337,-1.07522 8.39409,-2.3308 19.11347,3.19277 23.72022,12.22275 2.39032,4.68541 2.55371,13.73633 0.33248,18.41722 -3.22442,6.79496 -12.81111,13.42968 -19.4049,13.42968 -6.66799,0 -16.90421,-7.1784 -19.68996,-13.80807 -0.79482,-1.89154 -1.91417,-3.09877 -2.60238,-2.8067 -0.66421,0.28189 -3.12016,1.04146 -5.45766,1.68794 -2.3375,0.64647 -4.25,1.50863 -4.25,1.91591 0,1.88057 -8.84663,10.50167 -12.46129,12.1436 -3.85736,1.75217 -11.34829,2.35062 -14.53871,1.1615 z m 14.61609,-4.19615 c 3.724,-1.69113 6.99278,-5.14847 9.96718,-10.54214 0.62469,-1.13277 3.05615,-2.45982 5.78026,-3.15475 2.5861,-0.65972 5.35653,-1.74269 6.1565,-2.40661 2.29593,-1.90546 3.9027,-0.59082 5.19826,4.25316 3.67847,13.75337 23.00929,16.85358 31.95522,5.12487 2.25188,-2.95237 2.84844,-4.90689 3.15531,-10.33778 0.63116,-11.17 -4.05863,-17.82271 -14.13988,-20.05812 -4.23527,-0.93913 -5.97626,-0.87726 -9.47281,0.33665 -5.43083,1.88544 -6.68478,0.83211 -7.53274,-6.32763 -0.78024,-6.58793 -4.60867,-13.14328 -9.42454,-16.1375 -3.0022,-1.86659 -5.20779,-2.34688 -10.95676,-2.38595 -6.55937,-0.0446 -7.38208,-0.28305 -9.27394,-2.68816 -3.02397,-3.84435 -11.93677,-7.85361 -18.85322,-8.48077 -11.84805,-1.07435 -22.78401,3.7932 -27.8373,12.39025 -2.34679,3.99254 -2.8318,5.95194 -2.80393,11.3276 0.0514,9.9149 4.33453,16.15808 14.2163,20.72193 4.96719,2.29407 5.25,2.62643 5.25,6.16988 0,9.38724 5.24312,19.00666 12.23943,22.4554 4.3507,2.14462 11.32494,2.03375 16.37666,-0.26033 z"
         style="fill:#000000" />
    </g>
  </g>
</svg>
